<svg aria-hidden="true" style="position:absolute;width:0;height:0" xmlns="http://www.w3.org/2000/svg" overflow="hidden"><defs><symbol id="icon-arrow-left" viewBox="0 0 32 32"><path d="M32 16c0-8.836-7.164-16-16-16C7.163 0 0 7.164 0 16c0 8.837 7.163 16 16 16 8.836 0 16-7.163 16-16zM8 16l8-8v6h8v4h-8v6l-8-8z"/></symbol><symbol id="icon-arrow-right" viewBox="0 0 32 32"><path d="M0 16c0 8.836 7.164 16 16 16 8.837 0 16-7.164 16-16 0-8.837-7.163-16-16-16S0 7.163 0 16zm24 0l-8 8v-6H8v-4h8V8l8 8z"/></symbol></defs></svg>